<svg xmlns="http://www.w3.org/2000/svg" width="1202" height="1453"><path fill="#499647" d="m699 184 2 .658c25.349 8.432 49.123 21.75 70 38.342l2.715 2.133C791.867 239.665 807.382 256.169 821 275l1.347 1.861C847.469 312.043 866.732 360.121 866 404l2.275-.467c5.102-.73 10.178-.88 15.326-1.057l3.528-.128q5.803-.204 11.605-.391l2.025-.067c30.748-1.012 61.482-1.233 92.244-1.204 5.663.004 11.325-.01 16.988-.03q8.372-.025 16.745-.02 4.92.004 9.842-.014c3.601-.013 7.201-.006 10.802.006l3.182-.023c8.807.062 16.326 1.501 22.934 7.649 5.23 6.072 6.626 12.67 6.643 20.488l.008 2.062q.012 3.438.011 6.877l.015 4.971q.02 6.85.028 13.701.013 7.392.034 14.784.036 14.539.062 29.078.033 17.1.074 34.202.071 30.74.132 61.48a188297 188297 0 0 0 .166 76.827 214198 214198 0 0 1 .288 147.456l.006 3.096q.036 22.108.094 44.217.048 18.953.076 37.907.013 9.544.043 19.088c.294 89.01-19.926 168.69-83.176 234.512l-1.414 1.48c-5.618 5.855-11.443 11.235-17.793 16.286-2.861 2.289-5.635 4.663-8.418 7.046-68.313 56.695-147.986 64.293-232.913 64.389q-9.38.013-18.76.034-16.229.033-32.457.056-17.07.024-34.142.056l-2.161.004-10.876.02q-38.45.071-76.901.132-37.035.058-74.072.125l-2.295.004-20.57.037a999779 999779 0 0 1-121.395.211 63267 63267 0 0 1-56.848.076l-3.511.004c-13.986.016-27.971.054-41.957.127q-9.694.05-19.389.08-7.38.027-14.757.09-4.393.029-8.786.035c-1.934.007-3.869.03-5.803.053-10.664-.004-19.972-1.602-27.782-9.345-5.917-7.337-8.302-13.932-8.278-23.389l-.018-2.54c-.017-2.832-.02-5.664-.023-8.495l-.03-6.193c-.028-5.758-.043-11.515-.056-17.273-.012-5.064-.033-10.128-.053-15.192a29667 29667 0 0 1-.144-47.315l-.006-2.304q-.029-11.514-.063-23.028c-.145-50.22-.234-100.441-.312-150.662l-.042-25.65a205157 205157 0 0 1-.262-223.87q-.023-33.957-.072-67.913-.055-37.86-.059-75.72a23396 23396 0 0 0-.043-43.156q-.026-14.57-.012-29.14c.004-5.57.002-11.141-.017-16.712q-.026-7.624-.001-15.248a709 709 0 0 0-.014-5.501c-.075-12.404.843-21.55 9.571-30.972 5.963-5.325 12.6-6.797 20.394-7.039l3.96-.125q2.143-.06 4.286-.117l2.215-.064c15.543-.442 31.084-.53 46.633-.516q5.574.002 11.15-.002 9.323-.003 18.647.006 10.685.006 21.369-.002 9.307-.007 18.614-.003 5.502.003 11.003-.001c15.583-.013 31.109.123 46.663 1.136l-.01-2.08-.007-2.728-.01-2.705c.052-4.796.874-9.453 1.652-14.175l.538-3.283C379.7 334.004 398.798 292.844 428 259l1.957-2.293c11.02-12.58 22.852-24.58 36.363-34.476a405 405 0 0 0 4.993-3.735C535.837 170.338 623.183 158.412 699 184M496 295l-2.184 1.992c-26.293 24.841-45.823 66.3-46.925 102.61-.014 3.136.018 6.263.109 9.398 6.204 1.313 12.42 2.412 18.68 3.41 48.217 7.736 93.37 20.368 137.386 41.811l2.196 1.064 1.905.934c7.988 3.403 15.1 1.908 22.945-1.053 3.478-1.404 6.865-2.952 10.25-4.565C687.29 428.25 738.994 418.74 790 411c-2.335-45.698-19.62-85.813-52-118l-1.591-1.663c-4.133-4.27-8.466-7.83-13.346-11.212l-2.243-1.56C653.138 232.192 555.66 237.971 496 295"/><path fill="#49A240" d="M241.533 401.8q3.207-.005 6.413-.012 10.2-.02 20.4-.027 10.33-.005 20.66-.042c36.468-.135 72.715.332 109.106 3.065q4.688.35 9.375.684l6.562.474 3.01.217c34.5 2.52 68.387 7.364 101.941 15.841l3.3.831c28.808 7.384 56.797 17.931 83.278 31.49 7.274 3.57 14.57 3.29 22.422 1.679-2.782 3.245-4.734 3.867-9 6l-1 419 17 2c4.462 1.094 8.712 2.221 13.063 3.625l3.367 1.064c9.037 2.949 17.348 6.563 25.57 11.311l2.953 1.672C701.166 913.4 715.333 932.022 724 955l.969 2.36c2.174 5.677 3.578 11.642 2.031 17.64-3.093 3.797-7.102 6.122-11.508 8.16-7.176 3.498-9.59 7.977-12.957 14.89-8.247 16.84-20.99 31.19-33.535 44.95l-4.625 5.188c-6.954 7.697-14.22 14.38-22.375 20.812l-3.023 2.398c-9.836 7.611-17.28 12.685-30.106 12.207-11.536-1.804-21.046-9.39-29.871-16.605l-1.59-1.283c-14.488-11.746-27.982-24.97-39.41-39.717a3269 3269 0 0 0-4.562-5.437c-7.237-8.87-13.091-18.476-18.676-28.434L513 989l-1.418-2.71c-1.888-2.732-3.692-3.873-6.582-5.477-.866-.49-1.732-.978-2.625-1.481-.784-.44-1.567-.88-2.375-1.332l-3-2-1 12 5 2c10.422 4.96 13.852 10.523 18.156 20.762 2.506 5.957 6.045 11.034 9.844 16.238l1.328 1.838c12.944 17.865 27.448 36.238 44.672 50.162q1.628 1.397 3.254 2.797c6.236 5.283 12.563 10.073 19.809 13.89l1.779.99c6.866 3.387 11.712 2.72 20.158 3.323l-1 147c-50.414.582-50.414.582-67.127.742l-3.524.033c-47.84.45-95.682.571-143.523.735a83588 83588 0 0 0-43.21.159c-18.842.072-37.683.142-56.525.197l-2.005.005-17.62.05c-13.834.038-27.668.085-41.502.163q-11.226.063-22.451.1-7.303.027-14.605.086c-2.888.02-5.775.028-8.662.032-1.895.006-3.79.027-5.685.049-10.573-.01-19.824-1.68-27.561-9.351-5.917-7.337-8.302-13.932-8.278-23.389l-.018-2.54c-.017-2.832-.02-5.664-.023-8.495l-.03-6.193c-.028-5.758-.043-11.515-.056-17.273-.012-5.064-.033-10.128-.053-15.192-.06-15.007-.102-30.013-.138-45.02l-.006-2.295-.006-2.304q-.029-11.514-.063-23.028c-.145-50.22-.234-100.441-.312-150.662l-.042-25.65a205157 205157 0 0 1-.262-223.87q-.023-33.957-.072-67.913-.055-37.86-.059-75.72a23396 23396 0 0 0-.043-43.156q-.026-14.57-.012-29.14c.004-5.57.002-11.141-.017-16.712q-.026-7.624-.001-15.248a709 709 0 0 0-.014-5.501c-.075-12.404.843-21.55 9.571-30.972 5.977-5.337 12.62-6.798 20.432-7.036l3.978-.124q2.148-.06 4.298-.117l2.22-.063c15.178-.43 30.354-.567 45.539-.587"/><path fill="#F7F7F6" d="m836.938 552.625 2.735.003c14.444.046 28.254.883 42.327 4.372l2.925.7c34.538 8.475 65.198 26.27 90.648 50.92a405 405 0 0 0 4.064 3.86c6.87 6.612 12.727 13.852 18.363 21.52l1.265 1.72c16.697 23.076 28.603 50.246 33.735 78.28l.444 2.273c9.31 48.778-1.434 103.311-29.237 144.602C986.395 886.095 966.217 906.58 940 923l-1.816 1.147c-16.996 10.581-36.332 18.071-55.87 22.334-2.303.517-4.58 1.107-6.865 1.703-47.04 11.271-100.161.159-141.21-24.153-13.031-8.173-25.017-17.51-36.239-28.031l-1.496-1.393C667 866.915 647.99 829.4 640 790c-.235-1.152-.47-2.305-.71-3.492-7.84-42.831-.567-88.48 19.793-126.78a346 346 0 0 0 2.44-4.708c7.92-15.163 18.809-28.594 30.477-41.02l1.491-1.594C706.02 599.122 720.065 587.97 736 579l2.067-1.174c30.689-17.287 63.726-25.285 98.87-25.201"/><path fill="#F7F7F7" d="m432 559 2.364.39c17.35 2.943 34.021 7.653 49.74 15.646q1.952.992 3.917 1.96C516.336 590.94 541.588 612.34 560 638l1.303 1.807c6.146 8.62 11.253 17.533 15.725 27.122.976 2.08 1.986 4.141 3 6.204 12.06 25.164 16.196 51.708 16.222 79.367l.003 2.257c-.011 12.314-.864 24.14-3.253 36.243l-.809 4.531c-6.109 32.175-22.973 63.234-45.082 87.172-1.888 2.056-3.689 4.16-5.484 6.297-29.689 33.91-78 55.95-122.625 59-6.727.295-13.455.347-20.187.375l-2.539.024c-46.832.341-92.726-18.692-127.008-50.32-2.068-1.897-4.184-3.71-6.329-5.516C235.642 868.589 217.62 831.817 209 797l-.599-2.339c-3.322-13.555-3.795-27.028-3.839-40.911l-.018-2.534c-.059-12.331 1.142-24.108 3.456-36.216l.602-3.153a210 210 0 0 1 1.648-7.347l.634-2.616C219.102 669.292 236.76 640.064 260 616l2.758-2.95C286.01 588.568 316.93 572.532 349 563l3.281-.988c2.894-.793 5.776-1.429 8.719-2.012l1.907-.406c22.025-4.551 46.933-4.389 69.093-.594"/><path fill="#71B459" d="M694.75 911.313C708.665 923.258 717.582 937.982 724 955l.969 2.36c2.174 5.677 3.578 11.642 2.031 17.64-3.093 3.797-7.102 6.122-11.508 8.16-7.176 3.498-9.59 7.977-12.957 14.89-8.247 16.84-20.99 31.19-33.535 44.95l-4.625 5.188c-6.954 7.697-14.22 14.38-22.375 20.812l-3.023 2.398c-9.836 7.611-17.28 12.685-30.106 12.207-11.536-1.804-21.046-9.39-29.871-16.605l-1.59-1.283c-14.488-11.746-27.982-24.97-39.41-39.717q-2.279-2.721-4.562-5.437c-7.237-8.87-13.091-18.476-18.676-28.434L513 989l-1.418-2.71c-1.888-2.732-3.692-3.873-6.582-5.477-.866-.49-1.732-.978-2.625-1.481-.784-.44-1.567-.88-2.375-1.332l-3-2-1 12 5 2c10.422 4.96 13.852 10.523 18.156 20.762 2.506 5.957 6.045 11.034 9.844 16.238l1.328 1.838c12.944 17.865 27.448 36.238 44.672 50.162q1.628 1.397 3.254 2.797c6.236 5.283 12.563 10.073 19.808 13.89l1.78.99c6.866 3.387 11.712 2.72 20.158 3.323l-1 147c-49.387.623-49.387.623-66.195.773l-3.569.032c-32.725.284-65.451.294-98.177.293h-2.322q-29.438-.003-58.876-.026-17.067-.011-34.133-.017h-2.466L341 1248.05q-50-.015-100-.05.222-2.142.451-4.284l.254-2.41c.731-5.717 2.608-11.228 4.232-16.744l.599-2.049c14.914-50.826 40.023-99.788 74.968-139.746a164 164 0 0 0 3.351-4.108c5.818-7.317 12.127-13.95 18.755-20.53a1117 1117 0 0 0 5.265-5.277c6.735-6.743 13.642-12.94 21.125-18.852a275 275 0 0 0 3.066-2.61c32.898-28.212 72.394-50.144 113.118-64.718l2.55-.917C491 965 491 965 494.483 964.211c2.833-1.05 2.833-1.05 4.098-4.344a160 160 0 0 0 1.23-3.992c9.635-28.586 30.565-48.028 57.02-61.472C567.508 889.178 578.486 885.84 590 883l3.031-.809c34.392-7.89 75.286 7.263 101.719 29.121"/><path fill="#56B04C" d="M726 960c60.11 15.411 114.588 49.372 160 91l1.678 1.525c12.651 11.506 12.651 11.506 17.568 17.409 1.801 2.121 3.686 4.15 5.59 6.18 6.511 6.962 12.406 14.295 18.164 21.886l1.637 2.137c18.395 24.071 33.383 50.057 45.363 77.863-44.365 45.15-114.538 67.545-176.416 69.555l-3.85.128c-13.027.403-26.045.451-39.077.43l-7.757.001q-8.244 0-16.488-.008-11.917-.012-23.836-.012-19.352-.004-38.702-.019-18.765-.014-37.529-.02h-2.348l-11.667-.005q-48.165-.016-96.33-.05v-1h97v-146l-13-1c-2.947-.974-5.165-1.804-7.812-3.25l-2.01-1.056c-17.21-9.492-32.472-24.894-45.178-39.694a982 982 0 0 0-3.07-3.43c-12.947-14.53-27.662-31.53-33.492-50.445-1.9-4.91-6.31-6.487-10.688-8.875-7.39-4.038-7.39-4.038-8.797-8.773.043-3.298.322-6.264 1.047-9.477a224 224 0 0 1 9 5l2.168 1.246c5.428 3.538 7.554 7.602 10.219 13.414 6.773 14.023 17.062 26.715 27.554 38.098 1.781 1.94 3.487 3.917 5.184 5.93 14.407 16.484 36.022 40.146 58.504 43.921 17.225.919 30.008-11.116 42.133-21.937C663.778 1048.845 675.46 1036.07 686 1022l1.3-1.718c5.958-7.909 11.06-16.089 15.79-24.786L705 992c.4-.86.802-1.72 1.215-2.605 2.767-3.713 6.498-5.75 10.41-8.145q2.333-1.46 4.664-2.922l2.085-1.284c1.597-.944 1.597-.944 2.626-2.044.073-2.53.092-5.033.063-7.562l-.014-2.155q-.02-2.64-.049-5.283"/><path fill="#414242" d="m699 184 2 .658c25.349 8.432 49.123 21.75 70 38.342l2.715 2.133C791.867 239.665 807.382 256.169 821 275l1.347 1.861c25.33 35.476 43.91 83.02 43.653 127.139a65201 65201 0 0 1-28.62 2.713A4871 4871 0 0 1 790 411l-.304-2.209c-5.505-39.626-15.663-77.473-44.294-107.063C742 298.194 742 298.194 742 296l-1.797-.796c-2.304-1.26-3.68-2.545-5.457-4.462-3.6-3.7-7.448-6.682-11.683-9.617l-2.243-1.56c-41.675-28.554-92.285-36.206-141.534-27.061C547.61 258.726 519.3 273.759 496 296l-1.96 1.77C464.173 325.745 449.547 369.134 447 409c-16.413-.776-32.797-1.916-49.187-3.062l-8.124-.565Q379.845 404.689 370 404c-.123-11.605-.123-11.605.664-16.734l.452-2.953.509-3.063.538-3.27C379.729 333.973 398.804 292.837 428 259l1.957-2.293c11.02-12.58 22.852-24.58 36.363-34.476a405 405 0 0 0 4.993-3.735C535.837 170.338 623.183 158.412 699 184"/><path fill="#303030" d="M800 629c22.583-1.254 43.837 2.55 64 13l2.009 1.011c10.13 5.147 18.708 11.232 26.991 18.989l1.676 1.548c8.011 7.457 14.53 15.12 20.324 24.452l1.058 1.69c12.203 19.712 18.12 40.858 18.182 64.038.01 2.172.04 4.344.072 6.516.098 12.688-1.862 24.646-6 36.693l-.768 2.259c-11.567 32.8-35.5 58.756-66.64 73.936-5.155 2.35-10.535 4.078-15.904 5.868l-2.27 1c-28.536 10.451-62.492 5.745-89.61-6.413-32.891-15.272-54.843-41.472-68.405-74.74-11.339-31.429-8.233-67.523 5.637-97.527A95 95 0 0 1 695 693c2.874 2.678 4.788 5.166 6.625 8.625 7.853 13.364 20.65 22.11 35.375 26.375 5.141 1.167 10.062 1.184 15.313 1.188l2.763.037c16.163.034 30.238-7.033 42.049-17.788 13.239-13.775 16.398-30.619 16.152-48.996C812.84 649.716 806.414 639.64 800 629M420 632c15.45-.69 29.201.424 44 5 .728.225 1.456.45 2.206.68C494.09 646.596 517.182 665.59 533 690l1.922 2.914c7.596 12.202 12.453 26 15.078 40.086l.617 2.727c6.247 30.377-1.554 63.812-17.992 89.71-4.698 6.965-10.008 13.325-15.625 19.563l-1.797 2.016c-19.499 20.657-50.852 35.021-79.083 36.093-39.432.956-71.048-9.9-100.12-37.109-23.363-22.731-35.824-56.219-36.375-88.437.035-22.675 5.926-44.087 17.375-63.563 2.276 2.921 4.174 5.943 6.063 9.125C329.679 713.507 337.956 720.628 349 726l2.621 1.316c13.946 5.81 32.249 4.045 46.067-1.316 15.623-6.755 25.43-18.452 32.125-33.953 5.96-15.291 4.114-32.286-2.372-47.098-2.199-4.5-4.757-8.726-7.441-12.949"/><path fill="#F29F11" d="M694.75 911.313C708.665 923.258 717.582 937.982 724 955l.969 2.36c2.174 5.677 3.578 11.642 2.031 17.64-3.093 3.797-7.102 6.122-11.508 8.16-7.176 3.498-9.59 7.977-12.957 14.89-8.247 16.84-20.99 31.19-33.535 44.95l-4.625 5.188c-6.954 7.697-14.22 14.38-22.375 20.812l-3.023 2.398c-9.836 7.611-17.28 12.685-30.106 12.207-11.536-1.804-21.046-9.39-29.871-16.605l-1.59-1.283c-14.488-11.746-27.982-24.97-39.41-39.717q-2.279-2.721-4.562-5.437c-7.237-8.87-13.091-18.476-18.676-28.434L513 989l-1.422-2.715c-1.875-2.714-3.639-3.827-6.515-5.41A383 383 0 0 1 500 978l-2.316-1.117c-2.423-2.709-2.17-4.88-2.004-8.422.529-4.068 1.773-7.713 3.257-11.524l.95-2.484c12.006-30.366 34.655-50.195 64.093-63.41 8.403-3.562 17.177-5.862 26.02-8.043l3.031-.809c34.392-7.89 75.286 7.263 101.719 29.121"/><path fill="#F7D32B" d="M608 881c33.154-1.136 67.219 12.038 91.511 34.559C710.986 926.669 718.41 940.177 724 955l.969 2.36c2.207 5.763 3.428 11.539 2.031 17.64-5.854 6.632-15.016 10.747-22.625 15.125l-3.878 2.249q-4.843 2.804-9.697 5.59c-2.66 1.53-5.313 3.072-7.968 4.61-16.878 9.723-34.037 19.022-52.207 26.114l-2.5.991c-4.16 1.553-7.988 2.523-12.42 2.91l-2.684.242L611 1033l.008-2.042q.1-24.72.147-49.44.022-11.955.071-23.91.046-10.431.056-20.864c.004-3.675.013-7.35.035-11.025.088-15.153.053-29.876-3.317-44.719"/><path fill="#81C778" d="M278.652 415.815q7.103-.002 14.204-.02c30.781-.078 61.427.126 92.144 2.205q3.558.223 7.116.443c6.111.387 12.217.83 18.321 1.307l3.196.249C469.866 424.455 526.32 435.405 577 461l-2 3v-2l-3 1h-3l-2.96.035c-1.128.01-2.254.018-3.415.027l-3.398.036c-2.923-.089-5.378-.5-8.227-1.098-64.514-11.615-129.47-21.563-195-25l-2.136-.124c-18.113-1.046-36.227-1.12-54.364-1.126l-2.394-.002c-40.845-.021-82.529.779-122.715 8.883-2.5.386-4.865.432-7.391.369.482-8.684 3.368-15.924 9.812-21.938 7.704-6.685 16.719-6.59 26.391-6.738q2.266-.048 4.532-.1c23.634-.477 47.28-.411 70.917-.41"/><path fill="#84BA83" d="M940.092 415.8q7.248.016 14.495.015a6767 6767 0 0 1 56.42.207c5.053.038 10.103.097 15.154.2 2.034.038 4.068.06 6.101.08 10.067.267 17.52 2.727 24.941 9.643 5.123 5.859 7.1 11.313 6.797 19.055q-5.876-.714-11.75-1.437l-3.367-.409-3.242-.4-2.984-.365c-2.657-.389-2.657-.389-4.533-.891-3.209-.752-6.464-.95-9.741-1.217l-2.227-.19q-3.515-.3-7.031-.591-3.505-.293-7.01-.59-2.176-.187-4.354-.365c-2.871-.244-5.69-.532-8.524-1.055-4.951-.75-9.908-.869-14.909-1.045l-3.564-.127c-14.142-.457-28.284-.47-42.432-.448q-5.709.006-11.417-.004c-15.247-.02-30.483.088-45.724.564l-3.686.11c-11.122.387-22.186 1.344-33.251 2.51-7.155.746-14.315 1.437-21.477 2.118-30.018 2.843-30.018 2.843-59.847 7.176-5.033.84-10.075 1.62-15.118 2.402-25.45 3.936-25.45 3.936-50.785 8.55l-2.867.564c-4.43.875-8.853 1.771-13.271 2.702C670.459 464.7 660.64 465.429 650 465l-1 2-1-3c62.932-31.791 129.62-40.906 199.15-45.525q6.643-.447 13.276-1.03c26.498-2.19 53.1-1.713 79.666-1.646"/><path fill="#F5A621" d="M524 1006c3.266 1.243 6.263 2.628 9.273 4.398l2.465 1.435 2.637 1.542c10.518 6.079 21.214 11.756 32.027 17.288a574 574 0 0 1 6.973 3.657c6.848 3.604 13.744 6.649 21.063 9.18l2.186.775c18.83 6.157 38.922-6.085 55.376-14.275 7.426-3.833 14.721-7.896 22-12l4.93-2.758q5.543-3.106 11.07-6.242c0 4.035-1.955 6.178-4.25 9.313l-1.36 1.875c-5.098 6.922-10.647 13.42-16.39 19.812l-1.689 1.88c-12.28 13.585-25.076 25.877-40.311 36.12l-2.645 1.797c-7.037 4.155-14.384 4.45-22.355 3.203-9.812-3.39-18.032-9.487-26-16l-1.59-1.283c-14.484-11.742-27.996-24.964-39.41-39.717q-2.37-2.88-4.75-5.75C524 1008.926 524 1008.926 524 1006"/><path fill="#F8E930" d="M608 881c32.908-1.388 65.524 12.008 90.16 33.324 2.94 2.77 5.415 5.45 7.84 8.676-.187 2.375-.187 2.375-1 4h-2l-2-2c-4.74-.55-9.364-.03-14 1a99 99 0 0 1-5 0v-2h-37l-1 2-2.375-.5c-2.507-.562-2.507-.562-4.625-.5v-2h-3l-1 2-2 2c-.477 2.201-.477 2.201-.676 4.793l-.312 3.056-.324 3.338c-1.064 9.906-2.292 19.773-3.81 29.62q-.315 2.06-.61 4.124c-.28 1.94-.584 3.875-.89 5.811l-.513 3.37c-.995 3.322-2.163 4.756-4.865 6.888h-2v-2l-4 1-.031-2.402q-.15-11.36-.308-22.717-.083-5.835-.158-11.671c-.25-21.126-.25-21.126-.94-42.241l-.099-2.368c-.42-8.304-1.882-16.45-3.464-24.601"/><path fill="#559A40" d="M496 975a224 224 0 0 1 9 5l2.168 1.246c5.428 3.538 7.554 7.602 10.219 13.414 6.773 14.023 17.062 26.715 27.554 38.098 1.781 1.94 3.487 3.917 5.184 5.93 14.407 16.484 36.022 40.146 58.504 43.921 17.225.919 30.008-11.116 42.133-21.937C663.778 1048.845 675.46 1036.07 686 1022l1.3-1.718c5.958-7.909 11.06-16.089 15.79-24.786L705 992l1.219-2.605c2.754-3.703 6.451-5.748 10.343-8.145l2.366-1.496c5.527-3.482 5.527-3.482 8.072-4.754.082 1.562.14 3.124.188 4.688l.105 2.636c-.375 3.424-1.136 4.971-3.293 7.676-1.793 1.291-3.644 2.41-5.546 3.535-8.662 5.166-12.555 10.016-16.477 19.145-7.26 16.735-20.732 31.73-32.512 45.445a313 313 0 0 0-4.211 5c-3.068 3.725-6.394 6.827-10.078 9.941-2.382 2.117-4.541 4.377-6.739 6.684-4.087 4.132-8.394 7.685-13.062 11.125l-1.846 1.37c-8.929 6.431-16.289 9.575-27.529 7.755-21.574-6.596-40.74-27.391-55-44a982 982 0 0 0-3.07-3.43c-12.947-14.53-27.662-31.53-33.492-50.445-1.9-4.91-6.31-6.487-10.688-8.875-7.39-4.038-7.39-4.038-8.797-8.773.043-3.298.322-6.264 1.047-9.477"/><path fill="#EB5A02" d="M513 986c3.657 1.363 6.893 3.02 10.23 5.04l2.932 1.757q3.044 1.838 6.086 3.68l2.92 1.75 2.665 1.611c2.051 1.32 2.051 1.32 4.167 1.162v2l5.957.586C550 1004 550 1004 553 1006l3 1-1 2c20.5 11.097 20.5 11.097 42 20l2.766 1.012c18.708 6.341 36.566-4.284 53.123-12.416 18.206-9.01 35.922-18.766 53.111-29.596l1 2a105 105 0 0 1-3.625 7.313l-1.043 2.013-1.059 1.975-.955 1.786c-3.21 4.66-7.13 7.641-12.045 10.331l-3.347 1.847-3.551 1.923q-1.835 1.001-3.668 2.006a1720 1720 0 0 1-7.321 3.976 1758 1758 0 0 0-8.722 4.752c-42.013 22.8-42.013 22.8-58.918 18.047a187 187 0 0 1-4.308-1.469l-2.358-.813c-7.306-2.61-14.11-5.968-20.958-9.586a265 265 0 0 0-6.724-3.343c-12.714-6.167-24.866-13.135-36.992-20.384-2.526-1.498-2.526-1.498-5.836-2.882-3.496-2.03-4.815-4.452-6.82-7.93l-2.016-3.433L515 993l-1.234-2.223C513 989 513 989 513 986"/><path fill="#6DAD6B" d="M725.995 436.474c5.248.616 10.427.652 15.706.624l3.123-.005q3.335-.006 6.668-.018 5.286-.019 10.57-.024 11.22-.018 22.438-.051 13.006-.037 26.013-.056 5.193-.01 10.384-.032l6.402-.01 2.89-.015c5.685 0 11.172.386 16.811 1.113v1c-.719.066-1.438.133-2.179.2q-10.364.959-20.725 1.94-5.322.504-10.645.995c-17.233 1.586-34.319 3.544-51.402 6.366-4.02.658-8.044 1.278-12.07 1.898-4.995.772-9.987 1.561-14.979 2.351l-3.203.505c-11.625 1.838-23.22 3.765-34.77 6.042l-2.867.563c-4.43.875-8.853 1.771-13.271 2.702C670.459 464.7 660.64 465.429 650 465l-1 2-1-3c22.151-11.19 44.91-20.79 69-27l2.383-.684c2.443-.295 4.196-.168 6.612.158"/><path fill="#FCF6AB" d="M608 881c9.23-.25 17.92.31 27 2 .194 7.42-.392 14.579-1.312 21.938q-.424 3.49-.844 6.98l-.434 3.58a617 617 0 0 0-1.066 9.865c-1.309 12.877-2.961 25.687-4.893 38.484q-.387 2.577-.756 5.155c-.35 2.418-.72 4.83-1.097 7.244l-.307 2.197c-.716 4.381-1.696 6.867-5.291 9.557h-2v-2l-4 1-.031-2.402q-.15-11.36-.308-22.717-.083-5.835-.158-11.671c-.25-21.126-.25-21.126-.94-42.241l-.099-2.368c-.42-8.304-1.882-16.45-3.464-24.601"/><path fill="#76B274" d="M751 430v1c8.255.816 16.405 1.137 24.698 1.1l3.7-.004q5.03-.007 10.06-.024 5.445-.014 10.89-.02 9.416-.015 18.832-.038c9.92-.023 19.84-.036 29.759-.048l10.194-.012 2.572-.003a89456 89456 0 0 0 31.596-.044q21.457-.036 42.913-.084 22.045-.049 44.089-.065 13.593-.01 27.185-.052 9.3-.028 18.598-.027c3.58 0 7.158-.005 10.737-.023 3.874-.02 7.748-.016 11.622-.01l3.45-.029 3.131.017 2.71-.005c2.756.452 3.603 1.162 5.264 3.371 1.158 3.473 1.069 6.36 1 10q-5.876-.714-11.75-1.437l-3.367-.409-3.242-.4-2.984-.365c-2.657-.389-2.657-.389-4.533-.891-3.209-.752-6.464-.95-9.741-1.217l-2.227-.19q-3.515-.3-7.031-.591-3.505-.293-7.01-.59-2.176-.187-4.354-.365c-2.871-.244-5.69-.532-8.524-1.055-4.951-.75-9.908-.869-14.909-1.045l-3.564-.127c-14.142-.457-28.284-.47-42.432-.448q-5.709.006-11.416-.004c-15.411-.02-30.809.098-46.213.58l-3.885.117-3.61.125-3.135.109c-3.082.152-3.082.152-6.131.715-5.742.71-11.441.618-17.221.602h-4.023q-5.435-.001-10.87-.013c-3.793-.006-7.586-.006-11.379-.008q-10.763-.004-21.525-.021-12.258-.016-24.515-.022-25.204-.016-50.409-.05v-2q4.092-1.222 8.188-2.437l2.33-.698c5.549-1.643 10.646-3.032 16.482-2.865"/><path fill="#3F9235" d="M726 975h1c.082 1.562.14 3.124.188 4.688l.105 2.636c-.375 3.424-1.136 4.971-3.293 7.676-1.793 1.291-3.644 2.41-5.546 3.535-8.662 5.166-12.555 10.016-16.477 19.145-7.26 16.735-20.732 31.73-32.512 45.445a313 313 0 0 0-4.211 5c-3.068 3.725-6.394 6.827-10.078 9.941-2.382 2.117-4.541 4.377-6.739 6.684-4.087 4.132-8.394 7.685-13.062 11.125l-1.846 1.37C622.763 1100 622.763 1100 618 1100v-17l6.625-3.312c24.647-12.9 44.897-35.689 61.375-57.688l1.3-1.718c5.958-7.909 11.06-16.089 15.79-24.786L705 992c.4-.86.802-1.72 1.215-2.605 2.767-3.713 6.498-5.75 10.41-8.145q2.333-1.46 4.664-2.922l2.085-1.284c1.597-.944 1.597-.944 2.626-2.044"/><path fill="#7DB77B" d="M787 425v1l1.727-.006a57049 57049 0 0 1 113.41-.269l2.443-.004c13.067-.021 26.133-.06 39.199-.107q20.103-.069 40.206-.084 12.41-.01 24.82-.07 8.503-.038 17.007-.028 4.91.007 9.82-.028c3.546-.025 7.09-.019 10.637-.005l3.148-.044c6.98.073 6.98.073 10.254 3.183L1061 431l-1 2a346170 346170 0 0 1-126.66.055h-2.691q-21.55.008-43.101.022-22.124.014-44.247.017-13.644.002-27.288.014-9.365.007-18.73.006-5.397-.002-10.795.005-5.865.007-11.732.001l-3.407.01c-7.163-.014-14.222-.428-21.349-1.13l1-3c8.404-1.697 16.8-3.212 25.313-4.25l2.189-.279c3.24-.374 5.362-.516 8.498.529"/><path fill="#EC7904" d="m706 988 1 2a105 105 0 0 1-3.625 7.313l-1.043 2.013-1.059 1.975-.955 1.786c-3.21 4.66-7.13 7.641-12.045 10.331l-3.347 1.847-3.551 1.923q-1.835 1.001-3.668 2.006a1720 1720 0 0 1-7.321 3.976 1758 1758 0 0 0-8.722 4.752C637.25 1041.167 637.25 1041.167 625 1044l1-3c0-3.228-.953-5.97-2-9l-3-1 2.621-.89c28.953-10.18 56.517-25.737 82.379-42.11"/><path fill="#F7B825" d="M611 993h1v17c4.804-.665 4.804-.665 9.567-1.554 2.825-.518 5.483-.576 8.355-.579l3.355-.004 3.473.012 3.52-.012 3.34.004 3.06.004C649 1008 649 1008 650 1009c1.52.072 3.042.084 4.563.063l2.503-.028L659 1009v2l8-2 1 2c-12.29 6.382-24.569 12.754-37.5 17.75l-2.471.977c-5.978 2.224-10.35 2.605-17.029 3.273z"/><path fill="#5FA55C" d="m693 446-1 2h67v1l-3.923.607c-6.152.956-12.302 1.923-18.452 2.893l-3.4.535c-12.135 1.917-24.245 3.898-36.3 6.277l-2.847.56c-4.4.871-8.794 1.764-13.183 2.689-10.433 2.138-20.252 2.868-30.895 2.439l-1 2-1-3c24.019-11.84 24.019-11.84 35.438-16.312l2.253-.895c5.054-1.92 5.054-1.92 7.309-.793"/><path fill="#6BBF61" d="M541 446c12.619 3.044 24.474 9.159 36 15l-2 3v-2l-3 1h-3l-2.96.035c-1.128.01-2.254.018-3.415.027l-3.398.036c-2.927-.089-5.373-.503-8.227-1.098q-3.21-.563-6.423-1.107l-3.874-.658-8.464-1.432-9.003-1.523q-5.748-.972-11.495-1.947l-13.116-2.22a9008 9008 0 0 0-9.35-1.582A475 475 0 0 0 479 450c2-2 2-2 4.518-2.24l3.217.013h3.64l3.945.032 4.027.008c3.535.008 7.07.028 10.604.05 3.606.02 7.212.03 10.819.04 7.076.02 14.153.055 21.23.097z"/><path fill="#FAE675" d="M629 933h1c-.561 10.095-1.872 20.012-3.42 29.996-.396 2.591-.77 5.185-1.144 7.78q-.382 2.49-.768 4.978l-.326 2.333c-.73 4.501-1.607 7.169-5.342 9.913h-2v-2l-4 1v-47c5-1 5-1 8-1 2.565-.438 4.669-.834 7-2 .652-2.025.652-2.025 1-4"/><path fill="#EB6903" d="m588 1026 3.559 1.313c11.142 3.918 20.66 5.502 32.441 4.687 3 6.625 3 6.625 3 10-1.778 2.778-3.45 3.147-6.625 4.188-8.214 1.777-14.992.72-22.812-2.126l-2.428-.841c-5.63-1.969-5.63-1.969-8.135-3.221l.063-2.375c.124-2.606.124-2.606-1.063-4.625l2-2-2-2z"/><path fill="#EC8A04" d="m706 988 1 2a105 105 0 0 1-3.625 7.313l-1.043 2.013-1.059 1.975-.955 1.786c-3.27 4.746-7.275 7.72-12.275 10.464l-3.37 1.865-3.486 1.896q-1.773.976-3.544 1.956A1890 1890 0 0 1 669 1024c-2.795-2.795-4.208-5.173-5-9-1.975.348-1.975.348-4 1l-1 2-1-3 1.5-.756c15.92-8.073 31.224-17.028 46.5-26.244"/><path fill="#FCF9C1" d="M608 881c9.272-.187 17.884.304 27 2 .432 11.925.432 11.925-2 17-6.404 2.875-14.055 3-21 3z"/><path fill="#FCF196" d="m625 918 6 2a712 712 0 0 1-.375 6.188c-.07 1.148-.14 2.297-.21 3.48-.394 3.163-.978 5.5-2.415 8.332-2.125 1.313-2.125 1.313-4 2v-2l-2.187 1.563c-3.253 1.662-4.406 1.478-7.813.437h-1q-.118-4.155-.187-8.312l-.077-2.381-.029-2.295-.048-2.11c.445-2.485 1.393-3.352 3.341-4.902 2.008-.477 2.008-.477 4.125-.625 3.65.061 3.65.061 4.875-1.375"/><path fill="#F5D825" d="M608 881c4.27 9.762 4.309 20.512 4 31-6.336-2.957-9.675-7.711-12.062-14.187-1.797-5.226-3.417-10.501-4.938-15.813 4.394-.857 8.526-1.09 13-1"/><path fill="#FAE067" d="M626 961q-.428 4.001-.875 8l-.238 2.254c-.572 5.06-1.418 9.862-2.887 14.746-2.125 1.5-2.125 1.5-4 2l-1-2-4 1v-24l7-1c3-1 3-1 6-1"/><path fill="#F8CC42" d="M612 920h1v67l7-2 2 1c-.617 5.593-1.54 10.973-2.875 16.438l-.488 2.177c-.504 2.069-.504 2.069-1.637 5.385l-3 1-2-1z"/><path fill="#6EAE6C" d="M1062 435c2.43 3.644 2.162 5.712 2 10q-5.876-.714-11.75-1.437l-3.367-.409-3.242-.4-2.984-.365c-2.657-.389-2.657-.389-4.684-.903-2.392-.59-4.722-.807-7.176-1.021l-2.969-.264-3.078-.264-3.125-.275q-3.812-.335-7.625-.662v-1c10.295-1.005 20.48-1.12 30.813-1.062q2.367.008 4.736.013 5.726.017 11.451.049z"/><path fill="#FBEB83" d="M629 933h1q-.212 3.188-.437 6.375l-.247 3.586C629 946 629 946 628 948h-2l-1 2h-3l-3.562.563C615 951 615 951 613 950v-10c2.763-.597 5.16-1 8-1 2.565-.438 4.669-.834 7-2 .652-2.025.652-2.025 1-4"/><path fill="#F9D758" d="M615 973c3.343-.074 5.804-.065 9 1-.348 9.117-.348 9.117-2.937 12.625C619 988 619 988 617 988v-2l-4 1v-12h2z"/><path fill="#6BBB63" d="M175 440h3c2.125.375 2.125.375 4 1l1 2q-2.593.507-5.187 1l-2.918.563c-2.688.406-5.183.516-7.895.437v-4c2.724-1.362 4.981-1.062 8-1"/><path fill="#E16105" d="M513 986c3.995 1.37 6.8 3.257 10 6l-2 2h-3l-1 3a418 418 0 0 1-2-3.812l-1.125-2.145C513 989 513 989 513 986"/><path fill="#EDB826" d="M524 1006c3.432 1.24 6.303 2.503 9 5v3h-2l-1 2a617 617 0 0 1-3-3.875l-1.687-2.18C524 1008 524 1008 524 1006"/></svg>